<?xml version="1.0" standalone="no"?>
<!DOCTYPE svg PUBLIC "-//W3C//DTD SVG 20010904//EN"
 "http://www.w3.org/TR/2001/REC-SVG-20010904/DTD/svg10.dtd">
<svg version="1.0" xmlns="http://www.w3.org/2000/svg"
 width="362.000000pt" height="362.000000pt" viewBox="0 0 362.000000 362.000000"
 preserveAspectRatio="xMidYMid meet">
<metadata>
Created by potrace 1.14, written by Peter Selinger 2001-2017
</metadata>
<g transform="translate(0.000000,362.000000) scale(0.100000,-0.100000)"
fill="#000000" stroke="none">
<path d="M440 3611 c0 -5 11 -16 24 -24 13 -9 33 -31 44 -49 21 -34 21 -43 25
-1098 3 -798 7 -1078 16 -1115 7 -27 15 -61 17 -75 3 -14 16 -58 30 -98 66
-198 189 -372 347 -491 l58 -44 -108 -27 c-129 -33 -193 -57 -293 -112 -133
-73 -130 -49 -27 -228 49 -85 91 -157 93 -159 2 -2 30 14 61 36 77 54 162 96
248 122 129 41 343 35 455 -12 34 -14 36 -13 94 26 156 105 350 103 518 -5 29
-18 56 -32 59 -31 4 1 22 5 41 8 18 3 40 8 48 10 84 22 302 22 382 -1 9 -3 25
-6 35 -8 66 -14 185 -76 238 -127 l30 -28 98 162 99 162 -29 22 c-42 35 -199
109 -278 133 -39 11 -104 26 -145 33 l-75 13 62 42 c80 54 186 159 246 243 26
37 47 69 47 73 0 4 11 23 23 44 45 71 94 214 133 387 4 17 8 494 9 1060 1 784
5 1039 14 1067 14 41 53 78 82 78 11 0 19 5 19 10 0 7 -463 10 -1370 10 -788
0 -1370 -4 -1370 -9z m2638 -24 c1 -4 -5 -22 -15 -40 -16 -30 -18 -101 -19
-1057 -1 -1116 0 -1094 -59 -1276 -79 -242 -219 -435 -403 -555 -68 -45 -76
-48 -137 -47 l-65 1 77 42 c205 112 345 279 442 530 79 201 75 135 77 1293 l2
1032 -1184 0 -1184 0 0 -1022 c1 -563 5 -1043 10 -1068 4 -25 11 -63 14 -85 9
-52 62 -207 93 -270 43 -86 112 -183 177 -249 59 -60 190 -156 239 -176 20 -8
19 -9 -10 -11 -92 -7 -99 -6 -140 23 -171 117 -310 305 -378 514 -59 180 -58
164 -59 1300 l-1 1041 -27 40 c-15 23 -25 42 -23 44 7 8 2570 4 2573 -4z
m-133 -109 c8 -8 9 -637 1 -646 -4 -3 -266 -7 -581 -7 l-575 0 1 326 c0 180 2
328 4 330 6 7 1144 4 1150 -3z m-1274 -72 c28 -12 43 -50 28 -73 -16 -26 -18
-28 -229 -133 -454 -228 -553 -269 -646 -271 -68 -2 -84 13 -84 75 0 34 6 45
44 80 36 34 94 62 342 165 385 160 417 171 479 167 28 -2 57 -6 66 -10z m-101
-211 c0 -3 -35 -23 -77 -45 -43 -22 -107 -56 -143 -76 -102 -57 -207 -109
-313 -154 -88 -37 -108 -42 -185 -43 -75 -2 -92 1 -124 21 -37 23 -47 43 -40
75 6 23 32 22 32 -1 0 -10 12 -29 26 -43 21 -19 36 -24 77 -23 114 1 130 6
329 102 78 38 171 82 204 97 109 48 209 93 212 94 1 1 2 -1 2 -4z m181 -394
c14 -1 16 -34 15 -318 -1 -175 -4 -323 -8 -328 -4 -7 -89 -10 -240 -9 -128 1
-236 2 -240 3 -5 1 -5 47 1 58 0 1 11 -1 24 -6 34 -13 43 6 42 99 l0 84 -49 1
-49 1 -24 -54 -23 -53 -45 53 c-42 51 -46 53 -94 53 -29 1 -51 -4 -52 -10 -3
-33 -4 -152 -1 -161 2 -7 39 -10 107 -9 l105 1 0 -31 0 -30 -287 1 c-159 1
-290 2 -293 3 -8 2 -7 645 1 651 5 4 1024 4 1110 1z m140 -11 c3 -45 4 -617 1
-631 -3 -14 -45 -18 -94 -10 -5 0 -8 147 -8 325 l0 325 28 3 c53 6 72 3 73
-12z m87 -144 c2 -112 -1 -156 -8 -151 -16 10 -50 -24 -50 -51 0 -26 24 -54
46 -54 12 0 14 -21 12 -122 l-3 -123 -27 1 c-16 1 -31 2 -35 3 -10 1 -10 632
-1 646 4 6 19 10 35 9 l28 -1 3 -157z m100 80 c0 -50 -5 -83 -20 -113 -11 -24
-22 -58 -25 -75 -6 -39 -8 -42 -27 -35 -11 4 -14 34 -14 151 0 158 -1 156 60
148 26 -4 26 -6 26 -76z m93 62 c1 -10 2 -27 2 -37 1 -13 -14 -31 -41 -51
l-42 -30 0 64 c0 68 2 71 57 71 15 0 23 -6 24 -17z m99 -24 c0 -35 0 -35 -42
-32 -39 3 -42 5 -43 33 0 27 4 31 35 36 46 7 50 4 50 -37z m98 5 c-1 -18 -8
-29 -18 -30 -65 -5 -65 -5 -65 26 -1 42 -1 41 44 37 38 -4 41 -6 39 -33z m90
2 c-3 -22 -8 -26 -40 -29 -36 -3 -38 -2 -38 27 0 33 10 39 52 33 25 -4 29 -8
26 -31z m95 30 c4 -1 7 -12 7 -26 0 -20 -5 -25 -25 -26 -14 -1 -33 -2 -42 -3
-18 -1 -29 25 -20 47 4 10 32 13 80 8z m97 -41 l0 -39 -40 17 c-64 27 -51 76
18 64 18 -4 22 -11 22 -42z m77 41 c8 -1 12 -29 12 -92 l0 -91 -29 40 c-16 22
-33 43 -39 47 -11 6 -16 87 -6 97 3 2 15 4 27 2 13 -1 28 -3 35 -3z m100 -329
l-2 -325 -25 -2 c-14 -1 -30 0 -36 2 -8 3 -12 98 -12 325 -1 177 1 324 3 328
2 3 20 4 39 2 l35 -4 -2 -326z m119 325 c4 -4 7 -437 5 -613 l-1 -40 -52 0
-53 1 -3 320 c-1 176 0 325 2 330 4 11 92 12 102 2z m-332 -87 c7 -7 5 -10 -4
-11 -8 -1 -26 -2 -40 -4 -14 -1 -68 -6 -120 -9 -52 -4 -97 -8 -100 -9 -12 -3
-50 15 -50 24 0 5 10 9 23 10 61 2 192 11 195 14 7 6 87 -6 96 -15z m-315 -46
c85 -76 101 -226 35 -327 -30 -45 -78 -77 -118 -77 l-28 0 30 34 c41 47 56 97
56 186 0 82 -24 145 -65 174 -19 13 -20 18 -9 31 21 25 57 17 99 -21z m-101
-34 c68 -63 73 -223 10 -312 -36 -52 -91 -31 -132 49 l-16 31 30 7 c55 12 34
28 -30 22 -43 -5 -60 -3 -61 6 0 7 -2 20 -4 30 -3 13 4 17 30 17 39 0 65 8 65
21 0 5 -7 9 -15 9 -20 0 -19 26 4 76 30 65 78 82 119 44z m515 -27 c14 -36 20
-85 18 -140 -1 -15 -15 -30 -43 -47 -37 -22 -57 -25 -148 -27 -66 -2 -116 -8
-134 -17 -27 -13 -28 -13 -21 4 14 33 15 163 0 203 -9 27 -10 38 -1 38 35 1
181 15 184 17 1 2 31 4 66 5 l63 2 16 -38z m-673 -224 c7 -11 14 -46 16 -77 3
-31 9 -61 13 -66 5 -6 9 -29 8 -51 l0 -41 -41 1 -41 1 -1 127 c-2 117 0 127
17 127 10 0 23 -9 29 -21z m526 -54 c-1 -18 -4 -36 -7 -40 -4 -3 -32 -7 -63
-10 l-56 -3 0 43 0 44 58 3 c31 2 60 2 64 0 3 -1 5 -18 4 -37z m171 -67 l-2
-112 -37 -1 c-35 -1 -38 1 -38 25 0 15 3 30 8 34 4 4 7 24 7 44 0 25 10 51 30
79 17 24 31 43 32 43 1 0 1 -50 0 -112z m-86 -1 c-1 -4 -1 -13 -1 -19 0 -9
-18 -13 -53 -14 -28 0 -78 -3 -110 -6 -49 -5 -58 -4 -55 10 2 12 20 16 81 19
42 2 87 8 100 13 24 10 39 9 38 -3z m-321 -47 c7 -17 19 -34 28 -39 8 -5 12
-13 9 -18 -5 -8 -30 -9 -80 -4 -5 1 -5 6 -2 11 3 6 1 10 -4 10 -6 0 -11 -6
-11 -14 0 -12 -31 -14 -81 -7 -5 1 -5 32 0 62 1 4 11 5 24 5 12 -1 30 2 40 6
14 7 17 4 17 -17 0 -15 4 -24 9 -21 4 3 7 17 6 31 -5 37 29 33 45 -5z m76 10
c0 -14 -7 -20 -23 -20 -13 0 -23 2 -23 4 0 2 -3 11 -6 20 -5 12 1 16 23 16 22
0 29 -5 29 -20z m-235 -22 c3 -5 4 -19 2 -32 -4 -18 -11 -22 -44 -22 -38 0
-39 0 -39 37 l0 38 38 -6 c20 -3 40 -10 43 -15z m387 -25 c-2 -24 -8 -28 -33
-29 -42 -1 -55 5 -55 26 0 21 9 25 57 28 32 3 34 1 31 -25z m90 0 c-3 -25 -7
-28 -38 -28 -31 1 -35 4 -38 28 -3 26 -1 27 38 27 39 0 41 -1 38 -27z m-188
-6 c0 -20 -5 -23 -40 -22 -30 0 -40 4 -38 15 3 12 26 22 71 29 4 0 7 -9 7 -22z
m-233 -804 l-2 -757 -62 -11 c-60 -11 -64 -10 -110 17 -162 95 -357 97 -528 5
-60 -32 -60 -32 -117 -19 l-58 14 0 754 0 754 439 0 439 0 -1 -757z m-220
-759 c68 -34 99 -44 120 -40 15 3 42 8 58 12 17 3 98 7 180 9 228 6 429 -38
586 -128 98 -56 93 -49 71 -88 -20 -35 -84 -141 -128 -210 l-24 -39 -45 34
c-59 46 -140 83 -233 108 -98 25 -299 28 -416 4 l-79 -16 -56 35 c-174 105
-366 106 -525 0 -42 -28 -59 -34 -73 -27 -18 9 -88 27 -148 37 -43 7 -173 7
-220 0 -110 -16 -251 -74 -355 -144 -24 -17 -47 -27 -51 -23 -4 4 -19 30 -34
57 -15 28 -47 84 -71 126 -24 42 -44 80 -44 85 0 14 97 70 189 110 85 37 230
77 321 89 120 16 294 4 403 -29 26 -8 47 -11 47 -7 0 12 120 68 180 85 76 21
94 22 180 14 60 -6 93 -17 167 -54z"/>
<path d="M2247 3419 c7 -7 15 -10 18 -7 3 3 -2 9 -12 12 -14 6 -15 5 -6 -5z"/>
<path d="M2339 3414 c-8 -10 -22 -13 -38 -10 -25 5 -25 5 -3 -6 18 -9 26 -8
43 8 19 18 22 18 50 2 22 -13 36 -15 54 -8 14 5 25 12 25 15 0 2 -12 0 -26 -5
-19 -8 -31 -6 -47 5 -27 19 -41 19 -58 -1z"/>
<path d="M2480 3423 c0 -5 12 -20 28 -34 l27 -24 -25 30 c-14 17 -26 32 -27
34 -2 2 -3 0 -3 -6z"/>
<path d="M2220 3395 c-8 -9 -21 -13 -34 -10 -20 6 -20 5 -2 -6 15 -9 22 -7 39
10 12 11 19 21 15 21 -3 0 -11 -7 -18 -15z"/>
<path d="M2620 3402 c0 -6 -8 -9 -17 -6 -13 4 -14 3 -5 -3 7 -5 10 -17 6 -26
-4 -11 -1 -17 7 -17 7 0 9 3 6 6 -3 4 -2 15 4 26 6 11 8 22 5 26 -3 3 -6 0 -6
-6z"/>
<path d="M2131 3384 c0 -11 3 -14 6 -6 3 7 2 16 -1 19 -3 4 -6 -2 -5 -13z"/>
<path d="M2555 3390 c-16 -7 -17 -9 -3 -9 9 -1 20 4 23 9 7 11 7 11 -20 0z"/>
<path d="M2089 3353 c-43 -4 -47 -6 -51 -34 -4 -23 -1 -29 13 -29 16 0 17 4 9
25 -9 24 -8 25 30 25 21 0 42 5 45 10 3 6 5 9 3 8 -2 -1 -24 -3 -49 -5z"/>
<path d="M2672 3335 c-17 -37 -14 -45 4 -12 9 16 14 31 11 33 -2 2 -9 -7 -15
-21z"/>
<path d="M2500 3331 c0 -5 9 -13 21 -16 11 -4 36 -20 55 -37 45 -40 46 -77 2
-112 -18 -14 -27 -26 -20 -26 8 0 26 13 42 29 48 47 26 101 -60 150 -22 12
-40 18 -40 12z"/>
<path d="M2719 3291 c11 -7 9 -12 -10 -22 l-24 -12 35 -15 35 -15 -33 -10 -33
-10 27 -22 27 -22 -42 -7 c-37 -6 -40 -8 -31 -26 15 -27 13 -32 -12 -30 -47 4
-58 0 -58 -21 0 -19 -4 -21 -45 -16 -42 6 -47 4 -55 -18 -10 -25 -24 -32 -34
-16 -13 21 -57 22 -82 2 l-26 -20 -28 20 c-25 19 -31 20 -64 8 -38 -14 -47
-10 -59 25 -2 6 -20 5 -45 -1 -41 -11 -42 -10 -42 13 0 21 -4 24 -40 24 -43 0
-45 2 -30 31 9 17 7 19 -17 20 -15 1 -31 1 -35 0 -16 -2 -7 18 13 33 21 14 21
15 -16 30 -21 9 -38 16 -39 16 -1 0 -3 -30 -4 -67 -1 -41 2 -69 9 -74 6 -4 12
-19 12 -33 0 -19 6 -28 23 -32 17 -4 24 -13 24 -30 0 -20 6 -23 43 -26 35 -2
43 -7 45 -26 3 -21 7 -22 53 -16 27 4 49 3 49 -2 1 -29 17 -35 52 -21 33 14
38 13 64 -4 27 -18 29 -18 60 1 29 19 34 19 67 5 34 -14 37 -14 47 6 10 17 19
20 58 17 42 -3 47 -1 50 20 2 12 9 22 15 23 7 0 25 2 42 2 22 2 30 8 35 27 4
16 14 26 28 28 17 3 22 10 22 33 0 16 5 29 10 29 6 0 10 32 10 75 0 43 -4 75
-10 75 -5 0 -10 11 -10 24 0 13 -7 27 -16 30 -23 9 -31 7 -15 -3z"/>
<path d="M1974 3259 c0 -28 2 -30 25 -24 36 9 37 12 16 35 -26 29 -41 25 -41
-11z"/>
<path d="M2195 3266 c-58 -25 -70 -70 -24 -84 10 -4 9 1 -4 15 -16 19 -16 20
0 35 10 9 34 23 53 31 19 9 28 16 20 16 -8 0 -29 -6 -45 -13z"/>
<path d="M2315 3264 c-5 -1 -22 -5 -37 -8 -27 -6 -58 -30 -58 -46 0 -26 151
-41 205 -20 33 12 30 40 -5 56 -26 12 -87 23 -105 18z"/>
<path d="M2500 3269 c0 -4 7 -19 15 -35 13 -25 12 -29 -3 -40 -9 -6 -32 -15
-49 -19 -18 -3 -33 -10 -33 -15 0 -11 71 10 93 28 9 8 17 21 17 27 0 13 -39
65 -40 54z"/>
<path d="M1510 3353 c-18 -7 -85 -36 -160 -70 -125 -57 -145 -66 -150 -67 -22
-4 -306 -152 -330 -172 -43 -37 -39 -52 13 -47 94 8 143 26 440 167 65 31 120
56 123 56 15 0 154 103 154 114 0 23 -51 33 -90 19z m-125 -113 c5 -8 -64 -60
-80 -60 -2 0 -28 -11 -57 -24 -136 -62 -170 -75 -183 -70 -33 13 -6 40 74 75
30 13 84 38 120 56 67 32 115 41 126 23z"/>
<path d="M892 2668 c-24 -24 -101 -33 -136 -15 -10 5 -29 10 -42 12 -24 2 -24
1 -24 -85 0 -96 10 -112 53 -88 31 17 119 12 133 -7 8 -11 30 -15 82 -15 67 0
72 -2 92 -30 21 -30 21 -30 123 -30 l102 0 26 33 c27 33 27 33 110 32 67 -1
85 2 90 15 4 11 22 15 68 16 34 1 64 -3 67 -8 10 -15 64 -8 84 12 20 20 26 71
14 117 -9 32 -56 49 -94 33 -16 -7 -52 -13 -79 -15 -42 -2 -53 1 -70 21 l-21
24 -278 0 c-273 0 -278 0 -300 -22z m583 -5 c8 -8 15 -26 16 -41 1 -23 2 -24
7 -7 6 17 16 20 72 20 39 0 69 4 75 12 25 30 85 -13 85 -62 0 -22 -79 -42 -92
-22 -6 9 -8 9 -8 0 0 -9 -20 -13 -65 -13 -60 0 -65 2 -66 23 l-2 22 -4 -22
c-4 -21 -8 -22 -119 -21 -62 1 -117 -1 -120 -5 -3 -3 -7 -32 -8 -64 l-1 -58
-68 -1 -67 -2 0 64 0 63 -100 3 c-98 3 -100 3 -100 -19 0 -22 4 -23 66 -23 48
0 65 -3 62 -12 -3 -9 -30 -14 -74 -16 l-69 -3 0 88 c1 68 4 87 14 85 8 -2 11
3 8 11 -8 22 537 22 558 0z m-738 -88 c-1 -63 -3 -75 -16 -73 -13 3 -16 19
-18 76 -1 63 1 72 16 72 16 0 18 -10 18 -75z m102 42 c4 -12 6 -28 4 -37 -4
-14 -10 -15 -81 -11 -22 1 -10 55 13 62 41 11 56 7 64 -14z"/>
<path d="M1462 2600 c0 -19 2 -27 5 -17 2 9 2 25 0 35 -3 9 -5 1 -5 -18z"/>
<path d="M1632 2600 c0 -14 2 -19 5 -12 2 6 2 18 0 25 -3 6 -5 1 -5 -13z"/>
<path d="M1041 2174 c0 -11 3 -14 6 -6 3 7 2 16 -1 19 -3 4 -6 -2 -5 -13z"/>
<path d="M2183 2385 c-3 -9 -3 -18 -1 -21 3 -3 8 4 11 16 6 23 -1 27 -10 5z"/>
<path d="M2159 2333 c-13 -16 -12 -17 4 -4 9 7 17 15 17 17 0 8 -8 3 -21 -13z"/>
<path d="M1705 1716 c-74 -18 -120 -43 -181 -98 -149 -137 -170 -363 -49 -528
142 -193 432 -214 601 -43 205 207 130 551 -143 653 -67 25 -161 31 -228 16z
m122 -51 c11 -3 24 -12 27 -20 6 -17 -15 -20 -31 -4 -18 18 -75 7 -84 -17 -11
-31 2 -43 56 -53 27 -5 55 -17 62 -27 18 -25 16 -68 -4 -93 -28 -33 -124 -30
-137 4 -6 17 19 21 29 5 3 -5 24 -10 45 -10 29 0 42 5 50 19 24 45 -1 81 -56
81 -43 0 -76 31 -70 65 6 34 14 45 40 55 21 8 29 8 73 -5z m-278 -190 c35 -18
62 -79 55 -126 -7 -46 -33 -79 -82 -107 -35 -19 -42 -29 -42 -54 0 -18 -4 -28
-12 -26 -8 3 -11 45 -11 147 1 120 4 146 19 162 21 23 36 24 73 4z m538 0 c23
-16 36 -52 22 -61 -5 -3 -13 6 -18 19 -16 41 -68 50 -101 17 -18 -18 -20 -33
-20 -129 0 -120 5 -132 60 -133 30 -1 58 21 61 50 5 48 3 57 -19 60 -12 2 -22
8 -22 13 0 9 7 12 35 12 8 0 19 -1 23 -2 14 -2 7 -94 -8 -118 -27 -43 -93 -51
-132 -16 -15 14 -18 34 -18 135 0 113 1 120 25 143 28 29 79 33 112 10z m-202
-196 c7 -10 4 -11 -40 -13 -17 -1 -36 -5 -42 -9 -14 -9 -5 -47 12 -47 18 0 61
-37 53 -45 -3 -4 -18 1 -32 11 -15 9 -30 14 -33 10 -4 -3 -6 -36 -6 -71 1 -46
-3 -65 -12 -65 -9 0 -12 20 -10 70 2 63 0 70 -17 70 -29 0 -68 -45 -68 -79 0
-50 18 -81 54 -96 38 -16 67 -13 102 10 30 19 40 3 13 -21 -16 -14 -35 -19
-76 -18 -75 2 -104 31 -111 106 -5 63 19 103 71 116 24 6 31 14 31 33 0 22 -3
24 -42 23 -28 0 -42 4 -42 12 0 10 23 13 95 13 52 0 97 -5 100 -10z"/>
<path d="M1492 1458 c-12 -12 -18 -208 -7 -208 16 0 66 33 79 52 21 30 20 93
-1 129 -10 16 -20 29 -24 29 -4 0 -13 2 -21 5 -7 3 -19 0 -26 -7z"/>
<path d="M1739 538 c-1 -2 -2 -24 -3 -50 -1 -33 2 -48 11 -48 8 0 11 11 9 30
-2 17 -2 30 0 30 2 0 10 -13 19 -30 23 -44 41 -38 40 13 0 23 -5 42 -10 42 -6
0 -9 -8 -9 -17 2 -26 -11 -22 -24 7 -10 21 -28 33 -33 23z"/>
<path d="M1660 521 c-18 -7 -28 -101 -11 -101 6 0 11 7 11 15 0 8 9 15 20 15
11 0 20 -5 20 -11 0 -5 5 -7 10 -4 14 9 13 15 -13 56 -15 25 -27 34 -37 30z
m20 -41 c0 -5 -4 -10 -10 -10 -5 0 -10 5 -10 10 0 6 5 10 10 10 6 0 10 -4 10
-10z"/>
<path d="M1843 518 c0 -7 -3 -27 -7 -45 -7 -29 -5 -33 20 -39 52 -13 90 40 54
76 -22 22 -67 27 -67 8z m52 -39 c0 -15 -7 -25 -17 -27 -13 -3 -18 3 -18 21 0
13 3 27 7 31 13 12 28 -1 28 -25z"/>
<path d="M1109 490 c-10 -6 -13 -22 -11 -52 4 -42 5 -44 33 -43 30 1 53 14 28
16 -8 1 -17 1 -21 1 -3 -1 -9 5 -12 14 -3 8 -2 13 2 10 4 -2 14 -1 21 4 10 6
8 9 -8 15 -12 3 -19 11 -15 16 3 5 9 7 14 4 5 -3 11 -1 14 4 8 12 -28 20 -45
11z"/>
<path d="M1178 476 c-7 -42 6 -81 27 -81 34 1 58 21 58 49 0 35 -11 45 -50 50
-25 2 -32 -1 -35 -18z m58 -18 c6 -19 -11 -48 -27 -48 -5 0 -9 15 -9 33 0 37
25 48 36 15z"/>
<path d="M1308 483 c-19 -5 -39 -55 -29 -71 9 -14 53 -30 69 -25 6 3 12 16 12
29 0 18 -5 24 -21 24 -18 0 -19 -2 -9 -15 18 -21 8 -28 -16 -10 -15 11 -17 17
-8 32 6 10 21 18 32 18 11 0 24 3 28 8 4 4 2 7 -4 7 -5 0 -16 2 -24 4 -7 2
-21 2 -30 -1z"/>
<path d="M2261 472 c-11 -21 -4 -35 24 -47 19 -8 19 -9 -2 -12 -23 -4 -30 -18
-15 -26 13 -8 52 12 52 28 0 8 -9 20 -20 27 -23 15 -27 33 -5 24 9 -3 15 0 15
9 0 21 -37 19 -49 -3z"/>
<path d="M2339 476 c0 -6 -2 -23 -4 -37 -5 -37 8 -51 41 -46 27 4 28 5 7 12
-13 4 -23 11 -23 15 0 4 10 11 23 15 l22 8 -22 4 c-29 6 -30 23 -2 23 11 0 18
4 15 9 -8 13 -56 10 -57 -3z"/>
<path d="M2419 476 c0 -6 -2 -28 -4 -48 -2 -27 1 -38 11 -38 8 0 13 3 13 8 -4
23 4 24 22 2 l20 -25 -2 25 c-1 14 0 27 1 30 7 20 7 41 -1 46 -19 11 -59 11
-60 0z m43 -21 c0 -5 -5 -11 -11 -13 -6 -2 -11 4 -11 13 0 9 5 15 11 13 6 -2
11 -8 11 -13z"/>
<path d="M980 448 l-1 -33 -15 28 c-18 34 -34 27 -35 -16 l-1 -32 -14 33 c-8
18 -19 30 -24 27 -6 -4 -9 -9 -7 -13 2 -4 11 -24 21 -44 17 -39 48 -44 41 -7
-5 25 11 24 25 -1 6 -11 15 -18 21 -15 12 8 12 105 -1 105 -5 0 -10 -15 -10
-32z"/>
<path d="M1020 468 c0 -7 3 -29 6 -49 5 -27 11 -36 23 -34 9 2 22 4 29 4 20 2
13 21 -8 21 -11 0 -21 7 -21 15 -1 8 -3 20 -4 25 -1 6 -3 15 -4 20 -2 15 -21
12 -21 -2z"/>
<path d="M2507 432 c6 -45 19 -66 34 -56 7 4 49 81 49 89 0 15 -31 -12 -44
-38 l-16 -32 0 36 c0 23 -6 39 -15 43 -12 4 -13 -3 -8 -42z"/>
<path d="M1380 429 c-9 -33 -9 -44 2 -50 18 -12 48 -11 48 1 0 6 -7 10 -15 10
-8 0 -15 5 -15 10 0 6 9 10 20 10 11 0 20 5 20 10 0 6 -7 10 -15 10 -8 0 -15
5 -15 10 0 6 9 10 21 10 11 0 17 5 14 10 -3 6 -17 10 -30 10 -20 0 -26 -7 -35
-41z"/>
<path d="M2595 420 c-9 -50 -8 -54 2 -57 5 -2 14 19 19 47 8 39 8 50 -2 50 -7
0 -15 -18 -19 -40z"/>
<path d="M812 427 c-50 -23 -11 -108 41 -88 29 11 38 36 24 68 -11 26 -35 33
-65 20z m46 -49 c-2 -12 -8 -23 -15 -25 -15 -5 -35 31 -27 51 9 24 46 1 42
-26z"/>
<path d="M2642 428 c-22 -22 -14 -67 13 -80 14 -6 28 -8 33 -3 4 4 3 9 -3 12
-29 10 -37 22 -30 42 4 15 14 22 28 20 35 -2 43 1 27 11 -21 13 -54 12 -68 -2z"/>
<path d="M2717 377 l-15 -44 29 -10 c16 -6 31 -7 34 -3 3 5 -4 11 -15 15 -11
4 -18 11 -14 16 3 6 12 8 20 5 7 -3 16 -1 19 3 3 5 -2 11 -10 15 -22 8 -18 25
5 19 11 -3 20 -1 20 5 0 8 -31 21 -52 22 -3 0 -13 -19 -21 -43z"/>
<path d="M740 394 c0 -3 5 -14 10 -25 13 -23 4 -25 -16 -4 -19 19 -44 20 -44
2 0 -21 30 -77 41 -77 11 0 11 3 -1 35 l-10 27 26 -21 c32 -25 44 -26 44 -6 0
22 -29 75 -40 75 -6 0 -10 -3 -10 -6z"/>
<path d="M652 358 c-7 -7 -12 -21 -12 -32 -1 -19 -1 -20 -11 -3 -6 9 -15 15
-20 11 -5 -3 0 -22 13 -45 23 -42 44 -53 35 -18 -4 13 -1 19 6 16 7 -3 20 -8
30 -12 26 -11 20 11 -9 30 -20 13 -24 22 -20 41 7 27 5 29 -12 12z"/>
<path d="M1584 144 c-19 -15 -19 -15 1 -9 19 5 21 1 19 -52 -1 -32 2 -65 7
-73 5 -9 9 16 9 68 0 45 -4 82 -8 82 -5 0 -17 -7 -28 -16z"/>
<path d="M1695 140 c-15 -16 -17 -26 -9 -48 8 -23 15 -27 46 -26 33 1 35 0 25
-18 -7 -10 -22 -21 -34 -24 -19 -5 -34 -24 -19 -24 24 0 59 26 70 52 31 73
-30 142 -79 88z m65 -51 c-12 -22 -15 -23 -41 -9 -24 13 -25 46 -1 59 25 15
56 -23 42 -50z"/>
<path d="M1825 148 c-13 -42 -10 -53 20 -63 17 -6 31 -18 33 -29 5 -25 -22
-46 -50 -38 -14 3 -19 1 -14 -6 11 -19 51 -14 71 8 25 28 13 69 -23 76 -19 4
-28 12 -28 25 0 20 6 22 45 19 14 -1 21 2 17 9 -10 15 -66 14 -71 -1z"/>
<path d="M1955 144 c-17 -13 -17 -15 -2 -10 20 6 19 9 21 -66 0 -31 4 -60 9
-64 8 -8 9 -3 9 86 0 69 -7 79 -37 54z"/>
</g>
</svg>
